<svg width="185" height="50" viewBox="0 0 185 50" fill="none" xmlns="http://www.w3.org/2000/svg">
<g clip-path="url(#clip0_1_4309)">
<mask id="mask0_1_4309" style="mask-type:luminance" maskUnits="userSpaceOnUse" x="0" y="0" width="185" height="50">
<path d="M0 0H184.524V50H0V0Z" fill="white"/>
</mask>
<g mask="url(#mask0_1_4309)">
<path d="M17.7381 18.6905C17.1429 17.8571 16.4286 17.1429 15.4762 16.5476C14.5238 15.9524 13.3333 15.7143 12.1429 15.7143C10.8333 15.7143 9.64286 15.8333 8.57143 16.3095C7.5 16.7857 6.66667 17.381 5.83333 18.2143C5.11905 19.0476 4.52381 20 4.16667 21.0714C3.80952 22.1429 3.57143 23.3333 3.57143 24.6429C3.57143 25.9524 3.80952 27.1429 4.16667 28.2143C4.52381 29.2857 5.11905 30.2381 5.83333 31.0714C6.54762 31.9048 7.5 32.5 8.57143 32.9762C9.64286 33.4524 10.8333 33.6905 12.1429 33.5714C13.4524 33.5714 14.5238 33.3333 15.4762 32.7381C16.4286 32.1429 17.2619 31.4286 17.7381 30.5952L20.3571 32.619C19.1667 33.9286 17.9762 34.881 16.5476 35.5952C15.119 36.1905 13.6905 36.5476 12.0238 36.5476C10.2381 36.5476 8.45238 36.3095 7.02381 35.7143C5.47619 35.119 4.28571 34.2857 3.21429 33.2143C2.14286 32.1429 1.30952 30.8333 0.833333 29.4048C0.238095 27.9762 0 26.3095 0 24.6429C0 22.9762 0.238095 21.3095 0.833333 19.881C1.42857 18.4524 2.14286 17.1429 3.21429 16.0714C4.28571 15 5.59524 14.1667 7.02381 13.5714C8.57143 12.9762 10.2381 12.7381 12.0238 12.7381C13.5714 12.7381 15.119 13.0952 16.5476 13.6905C17.9762 14.2857 19.2857 15.3571 20.3571 16.6667L17.7381 18.6905ZM27.619 36.6667H24.4048V0H27.619V36.6667ZM57.2619 24.7619C57.2619 26.4286 56.9048 28.0952 56.3095 29.5238C55.7143 30.9524 54.881 32.2619 53.8095 33.3333C52.7381 34.4048 51.4286 35.2381 50 35.8333C48.5714 36.4286 46.9048 36.7857 45.119 36.7857C43.3333 36.7857 41.7857 36.4286 40.2381 35.8333C38.8095 35.2381 37.5 34.4048 36.4286 33.3333C35.3571 32.2619 34.5238 30.9524 33.9286 29.5238C33.3333 28.0952 32.9762 26.4286 32.9762 24.7619C32.9762 23.0952 33.3333 21.4286 33.9286 20C34.5238 18.5714 35.3571 17.2619 36.4286 16.1905C37.5 15.119 38.8095 14.2857 40.2381 13.6905C41.6667 13.0952 43.3333 12.7381 45.119 12.7381C46.9048 12.7381 48.5714 13.0952 50 13.6905C51.4286 14.2857 52.7381 15.119 53.8095 16.1905C54.881 17.2619 55.7143 18.5714 56.3095 20C57.0238 21.4286 57.2619 22.9762 57.2619 24.7619ZM53.8095 24.7619C53.8095 23.4524 53.5714 22.2619 53.2143 21.1905C52.8571 20.119 52.2619 19.1667 51.4286 18.3333C50.7143 17.5 49.7619 16.9048 48.6905 16.4286C47.619 15.9524 46.4286 15.7143 45.119 15.7143C43.8095 15.7143 42.619 15.9524 41.5476 16.4286C40.4762 16.9048 39.6429 17.5 38.9286 18.3333C38.2143 19.1667 37.619 20.119 37.2619 21.1905C36.9048 22.2619 36.6667 23.4524 36.6667 24.7619C36.6667 26.0714 36.9048 27.2619 37.2619 28.3333C37.619 29.4048 38.2143 30.3571 38.9286 31.1905C39.6429 32.0238 40.5952 32.619 41.5476 33.0952C42.619 33.5714 43.8095 33.8095 45.119 33.8095C46.4286 33.8095 47.619 33.5714 48.6905 33.0952C49.7619 32.619 50.5952 32.0238 51.4286 31.1905C52.1429 30.3571 52.7381 29.4048 53.2143 28.3333C53.5714 27.1429 53.8095 25.9524 53.8095 24.7619ZM74.1667 18.8095C73.6905 17.8571 72.9762 17.1429 72.2619 16.5476C71.4286 15.9524 70.4762 15.7143 69.2857 15.7143C68.6905 15.7143 68.2143 15.8333 67.619 15.9524C67.0238 16.0714 66.5476 16.3095 66.0714 16.5476C65.5952 16.7857 65.2381 17.1429 65 17.619C64.7619 18.0952 64.6429 18.5714 64.6429 19.1667C64.6429 20.2381 65 21.0714 65.7143 21.5476C66.4286 22.0238 67.619 22.5 69.0476 22.8571L72.2619 23.6905C73.8095 24.0476 75.119 24.7619 76.1905 25.8333C77.2619 26.9048 77.7381 28.2143 77.7381 29.881C77.7381 31.0714 77.5 32.1429 77.0238 33.0952C76.5476 34.0476 75.8333 34.7619 75 35.2381C74.1667 35.8333 73.2143 36.1905 72.1429 36.4286C71.0714 36.6667 70 36.7857 68.9286 36.7857C67.1429 36.7857 65.5952 36.4286 64.0476 35.8333C62.5 35.119 61.1905 34.0476 60.2381 32.381L62.9762 30.4762C63.5714 31.5476 64.4048 32.381 65.4762 32.9762C66.4286 33.5714 67.619 33.9286 69.0476 33.9286C69.6429 33.9286 70.3571 33.8095 70.9524 33.6905C71.5476 33.5714 72.1429 33.3333 72.7381 32.9762C73.2143 32.619 73.6905 32.2619 73.9286 31.7857C74.2857 31.3095 74.4048 30.7143 74.4048 30.119C74.4048 29.0476 73.9286 28.2143 73.0952 27.619C72.2619 27.1429 71.1905 26.6667 70 26.4286L66.9048 25.7143C66.5476 25.5952 65.9524 25.4762 65.3571 25.2381C64.6429 25 64.0476 24.6429 63.4524 24.1667C62.8571 23.6905 62.2619 23.0952 61.7857 22.381C61.3095 21.6667 61.0714 20.7143 61.0714 19.6429C61.0714 18.4524 61.3095 17.5 61.7857 16.5476C62.2619 15.7143 62.8571 15 63.6905 14.4048C64.5238 13.8095 65.3571 13.4524 66.4286 13.2143C67.381 12.9762 68.4524 12.8571 69.5238 12.8571C71.0714 12.8571 72.619 13.2143 73.9286 13.8095C75.2381 14.4048 76.3095 15.4762 77.1429 16.9048L74.1667 18.8095ZM84.1667 25.5952C84.2857 26.6667 84.5238 27.7381 85 28.8095C85.4762 29.7619 86.0714 30.7143 86.7857 31.4286C87.5 32.1429 88.3333 32.7381 89.4048 33.0952C90.3571 33.5714 91.4286 33.6905 92.6191 33.6905C94.2857 33.6905 95.8333 33.3333 97.0238 32.5C98.2143 31.6667 99.1667 30.8333 99.881 29.7619L102.381 31.7857C101.071 33.4524 99.5238 34.7619 97.8571 35.4762C96.1905 36.1905 94.4048 36.5476 92.6191 36.5476C90.9524 36.5476 89.4048 36.1905 87.9762 35.5952C86.5476 35 85.2381 34.1667 84.2857 33.0952C83.2143 32.0238 82.3809 30.7143 81.7857 29.2857C81.1905 27.8571 80.8333 26.1905 80.8333 24.5238C80.8333 22.8571 81.0714 21.1905 81.6667 19.7619C82.2619 18.3333 83.0952 17.0238 84.0476 15.9524C85.119 14.881 86.3095 14.0476 87.7381 13.4524C89.1667 12.8571 90.5952 12.5 92.2619 12.5C93.9286 12.5 95.4762 12.8571 96.9048 13.4524C98.2143 14.0476 99.4048 14.881 100.357 15.9524C101.31 17.0238 102.024 18.2143 102.5 19.5238C102.976 20.9524 103.214 22.381 103.214 23.9286V25.3571L84.1667 25.5952ZM99.6429 22.9762C99.6429 20.8333 99.0476 19.0476 97.7381 17.7381C96.4286 16.4286 94.6429 15.7143 92.2619 15.7143C91.1905 15.7143 90.2381 15.9524 89.2857 16.3095C88.3333 16.6667 87.5 17.2619 86.7857 17.9762C86.0714 18.6905 85.4762 19.4048 85 20.3571C84.5238 21.1905 84.2857 22.1429 84.2857 23.0952H99.6429V22.9762ZM111.19 36.6667H107.976V0H111.19V36.6667ZM159.405 13.3333H162.619V17.1429H162.738C163.214 16.3095 163.929 15.7143 164.643 15.119C165.357 14.5238 166.071 14.1667 166.905 13.8095C167.738 13.4524 168.452 13.2143 169.286 12.9762C170.119 12.8571 170.952 12.7381 171.667 12.7381C173.452 12.7381 175.119 13.0952 176.548 13.6905C177.976 14.2857 179.286 15.119 180.357 16.1905C181.429 17.2619 182.262 18.5714 182.857 20C183.452 21.4286 183.81 23.0952 183.81 24.7619C183.81 26.4286 183.452 28.0952 182.857 29.5238C182.262 30.9524 181.429 32.2619 180.357 33.3333C179.286 34.4048 177.976 35.2381 176.548 35.8333C175.119 36.4286 173.452 36.7857 171.667 36.7857C170.952 36.7857 170.119 36.6667 169.286 36.5476C168.452 36.4286 167.619 36.0714 166.905 35.7143C166.071 35.3571 165.357 34.881 164.643 34.4048C163.929 33.8095 163.333 33.2143 162.738 32.381H162.619V50H159.405V13.3333ZM180.238 24.7619C180.238 23.4524 180 22.2619 179.643 21.1905C179.286 20.119 178.69 19.1667 177.857 18.3333C177.143 17.5 176.19 16.9048 175.119 16.4286C174.048 15.9524 172.857 15.7143 171.548 15.7143C170.238 15.7143 169.048 15.9524 167.857 16.4286C166.786 16.9048 165.833 17.5 165 18.3333C164.167 19.1667 163.571 20.119 163.095 21.1905C162.619 22.2619 162.381 23.4524 162.381 24.7619C162.381 26.0714 162.619 27.2619 163.095 28.3333C163.571 29.4048 164.167 30.3571 165 31.1905C165.833 32.0238 166.786 32.619 167.857 33.0952C168.929 33.5714 170.119 33.8095 171.548 33.8095C172.976 33.8095 174.048 33.5714 175.119 33.0952C176.19 32.619 177.024 32.0238 177.857 31.1905C178.571 30.3571 179.167 29.4048 179.643 28.3333C180 27.1429 180.238 25.9524 180.238 24.7619Z" fill="white"/>
<path d="M143.571 36.6669H142.738C142.381 36.6669 142.024 36.5479 141.786 36.5479C141.667 36.5479 141.429 36.5479 141.31 36.4288L140.833 36.3098H140.595C140.119 36.1908 139.524 35.9527 139.048 35.8336L138.929 35.7146C138.81 35.7146 138.69 35.5955 138.571 35.5955C138.333 35.4765 138.214 35.4765 138.095 35.3574C137.976 35.2384 137.857 35.2384 137.619 35.1193C137.5 35.0003 137.381 35.0003 137.262 34.8812C137.143 34.7622 137.024 34.7622 136.905 34.6431L136.548 34.405L136.19 34.0479L135.833 33.6908C133.571 35.5955 130.833 36.6669 127.857 36.6669C121.31 36.6669 115.952 31.3098 115.952 24.7622C115.952 18.2146 121.31 12.8574 127.857 12.8574H129.167L129.643 12.9765C129.762 12.9765 130.119 13.0955 130.119 13.0955H130.357C130.476 13.0955 130.714 13.2146 130.833 13.2146C131.071 13.3336 131.31 13.3336 131.548 13.4527C131.786 13.5717 132.143 13.6908 132.381 13.8098C132.5 13.9289 132.619 13.9289 132.857 14.0479C132.976 14.1669 133.214 14.1669 133.333 14.286C133.452 14.286 133.452 14.405 133.571 14.405C133.81 14.5241 133.929 14.6431 134.167 14.7622L134.405 15.0003C134.524 15.1193 134.762 15.2384 134.881 15.3574L135.238 15.7146C135.357 15.8336 135.595 15.9527 135.595 15.9527C137.857 14.0479 140.595 12.9765 143.571 12.9765C150.119 12.9765 155.476 18.3336 155.476 24.8812C155.476 31.3098 150.119 36.6669 143.571 36.6669ZM129.762 23.5717C130.238 23.5717 130.595 23.6908 130.952 24.0479L137.262 30.8336L137.738 31.3098C139.405 32.7384 141.429 33.5717 143.571 33.5717C148.452 33.5717 152.381 29.6431 152.381 24.7622C152.381 19.8812 148.452 15.9527 143.571 15.9527C141.429 15.9527 139.405 16.6669 137.857 18.0955L142.738 23.3336C142.976 23.6908 143.214 24.0479 143.214 24.405C143.214 24.7622 142.976 25.2384 142.738 25.4765C142.5 25.7146 142.024 25.8336 141.667 25.8336C141.19 25.8336 140.833 25.7146 140.476 25.3574L134.167 18.5717L133.69 18.0955C132.024 16.6669 130 15.8336 127.857 15.8336C122.976 15.8336 119.048 19.7622 119.048 24.6431C119.048 29.5241 122.976 33.4527 127.857 33.4527C130 33.4527 132.024 32.7384 133.571 31.3098L128.571 26.1908C128.333 25.8336 128.095 25.4765 128.214 25.1193C128.214 24.7622 128.452 24.286 128.69 24.0479C128.929 23.6908 129.286 23.5717 129.762 23.5717Z" fill="url(#paint0_linear_1_4309)"/>
</g>
</g>
<defs>
<linearGradient id="paint0_linear_1_4309" x1="101.638" y1="2.8598" x2="150.582" y2="34.311" gradientUnits="userSpaceOnUse">
<stop stop-color="#8AFF71"/>
<stop offset="0.489" stop-color="#48B9B4"/>
<stop offset="1" stop-color="#006BFE"/>
</linearGradient>
<clipPath id="clip0_1_4309">
<rect width="184.524" height="50" fill="white"/>
</clipPath>
</defs>
</svg>
